# xmcd
#
# Track frame offsets:
# 150
# 13910
# 26260
# 39387
# 49035
# 60937
# 74480
# 86320
# 97015
# 108475
# 120585
# 135005
#
# Disc length: 1971 seconds
#
#
# Revision: 2
# Processed by: cddbd v1.5.2PL0 Copyright (c) Steve Scherf et al.
# Submitted via: FreeRIP 2.951 
#
DISCID=8e07b10c
DTITLE=Ben E. King and The Drifters - The Best Of Ben E. King and The Drifters
DYEAR=1900
DGENRE=
TTITLE0=The Drifters - On Broadway
TTITLE1=The Drifters - Under The Boardwalk
TTITLE2=Ben E. King - Don't Play That Song (You Lied)
TTITLE3=The Drifters - There Goes My Baby
TTITLE4=The Drifters - Up On The Roof
TTITLE5=Ben E. King - Stand By Me
TTITLE6=The Drifters - Save The Last Dance For Me
TTITLE7=Ben E. King - I (Who Have Nothing
TTITLE8=The Drifters - Saturday Night At The Movies
TTITLE9=The Drifters - This Magic Momen
TTITLE10=The Drifters - Tie A Yellow Ribbon Round The Old Oak Tree
TTITLE11=The Drifters - (Sittin' On) The Dock Of The Bay
EXTD=
EXTT0=
EXTT1=
EXTT2=
EXTT3=
EXTT4=
EXTT5=
EXTT6=
EXTT7=
EXTT8=
EXTT9=
EXTT10=
EXTT11=
PLAYORDER=
